<svg xmlns="http://www.w3.org/2000/svg" width="20" height="20" fill="none"><path fill="currentColor" d="M17.375 17.301V7.171l-7.333-4.475-7.334 4.475V17.3h3.667v-2.563A3.76 3.76 0 0 1 7.449 12.1a3.636 3.636 0 0 1 2.593-1.092c.972 0 1.905.393 2.592 1.092a3.76 3.76 0 0 1 1.074 2.637V17.3h3.667Zm-5.5 1.864v-4.427a1.88 1.88 0 0 0-.537-1.319 1.818 1.818 0 0 0-1.296-.546c-.487 0-.953.197-1.297.546a1.88 1.88 0 0 0-.537 1.319v4.427h-5.5c-.486 0-.952-.196-1.296-.546a1.88 1.88 0 0 1-.537-1.318V7.171c0-.322.082-.639.238-.919.156-.28.38-.514.652-.68l7.333-4.474a1.81 1.81 0 0 1 1.887 0l7.333 4.474c.272.166.496.4.652.68.156.28.238.597.238.919V17.3c0 .495-.193.969-.537 1.318-.343.35-.81.546-1.296.546h-5.5Z"/></svg>