<svg xmlns="http://www.w3.org/2000/svg" width="20" height="20" fill="none"><path fill="currentColor" fill-rule="evenodd" d="M3.525 2.499a.983.983 0 0 0-.983.983v13.033c0 .543.44.984.983.984h13.033c.543 0 .984-.44.984-.984V3.482a.983.983 0 0 0-.984-.983H3.525Zm-2.65.983a2.65 2.65 0 0 1 2.65-2.65h13.033a2.65 2.65 0 0 1 2.65 2.65v13.033a2.65 2.65 0 0 1-2.65 2.65H3.525a2.65 2.65 0 0 1-2.65-2.65V3.482Z" clip-rule="evenodd"/><path fill="currentColor" fill-rule="evenodd" d="M5.876.832c.46 0 .834.373.834.833v16.667a.833.833 0 1 1-1.667 0V1.665c0-.46.373-.833.833-.833ZM14.208.832c.46 0 .834.373.834.833v16.667a.833.833 0 1 1-1.667 0V1.665c0-.46.373-.833.833-.833Z" clip-rule="evenodd"/><path fill="currentColor" fill-rule="evenodd" d="M.875 9.997c0-.46.373-.833.833-.833h16.667a.833.833 0 0 1 0 1.667H1.708a.833.833 0 0 1-.833-.834ZM.875 5.833c0-.46.373-.833.833-.833h4.167a.833.833 0 0 1 0 1.667H1.708a.833.833 0 0 1-.833-.834ZM.875 14.165c0-.46.373-.833.833-.833h4.167a.833.833 0 0 1 0 1.667H1.708a.833.833 0 0 1-.833-.834ZM13.375 14.165c0-.46.373-.833.833-.833h4.167a.833.833 0 0 1 0 1.667h-4.167a.833.833 0 0 1-.833-.834ZM13.375 5.833c0-.46.373-.833.833-.833h4.167a.833.833 0 0 1 0 1.667h-4.167a.833.833 0 0 1-.833-.834Z" clip-rule="evenodd"/></svg>